<?xml version="1.0" standalone="no"?>
<!DOCTYPE svg PUBLIC "-//W3C//DTD SVG 20010904//EN"
 "http://www.w3.org/TR/2001/REC-SVG-20010904/DTD/svg10.dtd">
<svg version="1.0" xmlns="http://www.w3.org/2000/svg"
 width="750.000000pt" height="480.000000pt" viewBox="0 0 750.000000 480.000000"
 preserveAspectRatio="xMidYMid meet">

<g transform="translate(0.000000,480.000000) scale(0.100000,-0.100000)"
fill="#000000" stroke="none">
<path d="M7325 4395 c-50 -29 -52 -29 -58 -5 -6 24 -35 26 -63 5 -24 -19 -29
-18 -49 1 -14 15 -23 15 -78 4 -34 -7 -86 -13 -115 -14 -31 -1 -52 -5 -52 -12
0 -7 -10 -15 -22 -19 -20 -6 -21 -8 -5 -12 10 -3 28 2 41 11 13 8 26 13 29 10
10 -11 -5 -34 -22 -34 -9 0 -27 -7 -39 -16 -13 -9 -30 -13 -38 -10 -8 3 -30 0
-48 -8 -38 -16 -59 -8 -54 20 5 27 -84 42 -118 19 -13 -8 -45 -22 -71 -31 -26
-9 -65 -29 -85 -45 -20 -16 -42 -29 -49 -29 -13 0 -82 -49 -87 -62 -6 -14 -22
-8 -22 8 0 11 -6 14 -20 9 -11 -4 -20 -2 -20 4 0 20 -25 0 -39 -30 -18 -41
-52 -61 -113 -65 -85 -6 -111 -14 -151 -50 -20 -19 -47 -34 -59 -34 -12 0 -38
-11 -58 -25 -32 -22 -39 -24 -68 -13 -37 14 -69 1 -64 -26 2 -11 -5 -16 -22
-16 -23 0 -76 -49 -76 -70 0 -12 -59 -40 -86 -40 -13 0 -29 8 -36 18 -7 9 -24
23 -37 30 -20 12 -26 11 -45 -5 -11 -11 -33 -27 -48 -36 -16 -10 -28 -27 -30
-44 -2 -19 -9 -29 -23 -31 -12 -2 -26 -15 -32 -32 -8 -22 -18 -30 -37 -30 -13
0 -28 -4 -31 -10 -10 -15 -35 -12 -35 5 0 24 -19 18 -32 -10 -6 -14 -15 -25
-20 -25 -5 0 -14 -4 -21 -10 -60 -49 -78 -60 -95 -60 -12 0 -24 -4 -27 -10 -3
-5 -15 -10 -25 -10 -11 0 -33 -14 -50 -30 -23 -22 -37 -29 -54 -24 -13 3 -27
1 -30 -5 -4 -6 -17 -11 -30 -11 -13 0 -31 -9 -42 -21 -10 -11 -26 -18 -36 -16
-10 3 -15 1 -12 -4 3 -5 -1 -11 -8 -13 -7 -2 -29 -8 -49 -15 -45 -14 -75 -6
-58 16 9 10 9 17 2 24 -16 16 -49 2 -67 -26 -9 -14 -23 -25 -31 -25 -21 0 -28
-19 -14 -36 15 -19 6 -28 -21 -19 -15 5 -19 12 -15 26 10 29 -10 23 -48 -16
-37 -38 -47 -43 -47 -20 0 20 -34 19 -55 -1 -12 -13 -13 -19 -3 -31 9 -12 9
-16 -3 -24 -8 -5 -19 -9 -26 -9 -7 0 -17 -9 -23 -20 -7 -14 -21 -20 -45 -20
-18 0 -36 -4 -39 -9 -3 -5 -31 -12 -63 -16 -76 -9 -97 -18 -130 -56 -25 -27
-33 -30 -66 -26 -21 3 -47 13 -57 22 -18 16 -18 15 -13 -24 4 -32 2 -41 -9
-41 -8 0 -18 3 -22 8 -4 4 -17 7 -29 7 -13 0 -23 7 -25 18 -2 11 3 17 13 17 9
0 15 5 13 12 -2 6 -24 12 -49 13 -25 1 -59 10 -76 19 -40 20 -81 21 -102 1 -9
-7 -43 -18 -75 -23 -36 -6 -62 -16 -68 -26 -12 -21 -90 -22 -123 0 -15 10 -40
14 -67 12 -42 -3 -43 -2 -48 32 -5 32 -6 34 -17 14 -6 -11 -27 -25 -47 -31
-29 -9 -38 -8 -55 8 -27 25 -83 25 -106 -1 -9 -10 -40 -24 -69 -30 -58 -12
-81 -24 -81 -41 0 -7 -6 -14 -12 -16 -7 -3 -13 2 -13 11 0 19 -24 25 -112 29
-37 2 -74 9 -82 16 -15 13 -58 16 -131 9 -22 -2 -65 1 -95 7 -45 9 -56 15 -58
33 -2 12 -10 22 -18 22 -8 0 -14 6 -14 14 0 23 -55 33 -197 35 -127 3 -132 2
-143 -19 -11 -20 -17 -22 -57 -16 -26 3 -51 11 -58 16 -11 9 -49 16 -117 23
-13 1 -18 10 -18 30 0 23 -4 27 -18 23 -12 -4 -23 3 -35 23 -11 19 -27 31 -45
33 -18 2 -28 10 -30 23 -1 11 -15 26 -29 33 -35 16 -43 15 -43 -3 0 -8 -9 -15
-20 -15 -11 0 -20 3 -20 8 0 4 -11 12 -25 19 -23 10 -25 9 -25 -12 0 -28 -12
-38 -35 -29 -13 5 -15 14 -11 35 6 32 8 31 -71 31 -47 1 -53 3 -63 29 -13 30
-6 79 10 79 6 0 10 8 10 18 0 10 -3 13 -8 6 -4 -6 -22 -14 -40 -17 -30 -6 -33
-5 -30 16 2 14 11 23 26 25 29 4 29 28 0 36 -59 15 -129 0 -82 -18 22 -9 13
-26 -25 -47 -31 -17 -34 -17 -64 1 -18 10 -60 22 -94 26 -61 6 -88 24 -38 24
26 0 34 14 12 23 -15 6 -47 -15 -47 -32 0 -15 -16 -14 -44 4 -32 21 -79 10
-71 -16 8 -24 -10 -24 -41 0 -13 10 -41 22 -61 26 -21 4 -46 13 -55 22 -13 11
-21 12 -37 3 -12 -6 -21 -15 -21 -20 0 -5 -7 -7 -15 -4 -11 5 -12 11 -4 26 6
10 8 32 4 48 -5 24 -11 28 -43 28 -51 0 -102 12 -102 24 0 6 -7 5 -16 -3 -15
-13 -26 -6 -37 24 -5 16 -37 -6 -37 -26 0 -20 0 -20 -20 -2 -20 18 -21 18 -26
-1 -3 -10 -16 -24 -29 -30 -37 -18 -47 2 -37 70 5 31 5 56 0 56 -4 0 -8 -10
-8 -23 0 -32 -16 -44 -50 -39 -33 5 -78 56 -60 67 15 9 12 25 -5 25 -16 0 -22
-55 -7 -62 14 -6 42 -70 42 -96 -1 -23 -2 -25 -11 -9 -5 9 -17 17 -24 17 -13
0 -15 -243 -15 -1870 l0 -1870 1705 0 1705 0 0 28 c0 15 5 83 10 152 5 69 12
161 15 205 7 107 25 258 30 264 8 7 5 -88 -6 -194 -5 -55 -14 -154 -19 -220
-5 -66 -13 -146 -16 -177 l-7 -58 2042 0 2041 0 0 2204 0 2204 -52 -1 c-29 -1
-60 1 -68 5 -8 3 -33 -5 -55 -17z m-7243 -647 c-7 -7 -12 -8 -12 -2 0 14 12
26 19 19 2 -3 -1 -11 -7 -17z m1048 -169 c0 -5 -4 -9 -10 -9 -5 0 -10 7 -10
16 0 8 5 12 10 9 6 -3 10 -10 10 -16z m-470 3 c0 -13 -12 -22 -22 -16 -10 6
-1 24 13 24 5 0 9 -4 9 -8z m570 -167 c0 -16 -9 -19 -34 -9 -25 9 -19 24 9 24
16 0 25 -6 25 -15z m430 -159 c0 -2 -7 -7 -16 -10 -8 -3 -12 -2 -9 4 6 10 25
14 25 6z m2021 -133 c-6 -24 -13 -28 -42 -28 -25 0 -35 5 -37 19 -3 16 1 18
32 14 25 -3 36 0 36 9 0 7 4 13 9 13 5 0 6 -12 2 -27z m-1121 -3 c0 -5 -4 -10
-10 -10 -5 0 -10 5 -10 10 0 6 5 10 10 10 6 0 10 -4 10 -10z m575 -220 c-3 -5
-10 -10 -16 -10 -5 0 -9 5 -9 10 0 6 7 10 16 10 8 0 12 -4 9 -10z m-87 -92
c14 -14 15 -57 2 -78 -9 -13 -11 -13 -20 0 -33 50 -18 114 18 78z m-47 -218
c10 -36 10 -110 1 -110 -5 0 -17 18 -27 40 -10 22 -24 45 -32 51 -18 16 -16
37 5 42 31 9 46 2 53 -23z m2262 -102 c-1 -47 -50 -277 -63 -298 -4 -6 -119
-18 -296 -30 -292 -20 -520 -37 -606 -45 -57 -5 -56 -7 -60 130 l-2 100 134
27 c74 15 277 54 450 88 173 33 331 65 350 70 19 4 49 8 65 7 29 -2 30 -3 28
-49z m-1888 -47 c-8 -50 -34 -57 -27 -8 5 32 21 62 29 53 3 -3 2 -23 -2 -45z
m-15 -83 c0 -23 -3 -29 -11 -21 -6 6 -8 20 -4 32 9 30 15 26 15 -11z m-371
-101 c7 -34 17 -68 23 -74 7 -9 7 -13 -1 -13 -17 0 -61 77 -61 107 0 23 -2 25
-12 11 -11 -13 -18 -14 -41 -4 -22 10 -25 15 -15 23 13 12 65 21 84 15 5 -1
16 -31 23 -65z m141 18 c0 -8 -4 -15 -10 -15 -5 0 -10 7 -10 15 0 8 5 15 10
15 6 0 10 -7 10 -15z m157 -142 c-9 -124 -12 -142 -22 -131 -7 6 18 268 25
263 3 -2 1 -61 -3 -132z m-227 3 c0 -2 -9 -2 -20 1 -11 3 -20 9 -20 15 0 5 9
4 20 -2 11 -6 20 -12 20 -14z m60 -4 c0 -24 -8 -32 -26 -25 -10 4 -11 9 -1 24
15 24 27 24 27 1z m2141 -117 c23 -66 46 -125 51 -132 6 -7 3 -21 -8 -38 l-17
-26 -126 6 c-69 3 -277 12 -461 20 -184 9 -358 18 -386 21 l-51 5 -7 56 c-4
35 -3 60 4 67 6 6 49 18 95 27 96 18 92 22 59 -60 -8 -18 -14 -42 -14 -52 0
-24 44 -36 81 -22 20 8 29 8 32 -1 3 -7 14 -6 34 6 27 16 32 16 43 3 19 -22
38 -18 53 12 12 22 12 30 1 52 -7 14 -16 39 -19 54 -9 46 -44 32 -83 -33 -32
-53 -40 -58 -80 -45 -10 4 -9 12 3 42 9 20 14 42 11 49 -3 8 20 18 67 28 67
15 105 22 277 46 36 5 133 14 215 20 83 6 154 15 160 21 14 14 19 3 66 -126z
m-956 40 c-50 -14 -71 -11 -45 5 8 6 33 9 55 9 l40 -1 -50 -13z m-1492 -162
c-7 -2 -19 -2 -25 0 -7 3 -2 5 12 5 14 0 19 -2 13 -5z m432 -60 c-14 -135 -29
-229 -36 -238 -6 -5 -9 -1 -9 10 0 20 24 189 36 253 10 53 16 36 9 -25z m302
-245 c-4 -68 -13 -127 -18 -133 -7 -7 -8 26 -4 100 7 122 12 155 23 155 4 0 4
-55 -1 -122z m-21 -244 c-3 -48 -11 -94 -17 -103 -9 -14 -10 -14 -5 2 3 10 6
57 6 103 0 56 4 84 11 84 9 0 10 -24 5 -86z m24 -179 c-7 -8 -18 -15 -25 -15
-8 0 -16 -6 -18 -12 -4 -10 -6 -10 -6 -1 -1 16 53 66 57 53 2 -6 -2 -17 -8
-25z m-53 -172 c-3 -10 -5 -2 -5 17 0 19 2 27 5 18 2 -10 2 -26 0 -35z"/>
<path d="M5015 2430 c-78 -32 -112 -173 -52 -215 72 -51 157 30 157 150 0 49
-57 85 -105 65z m41 -77 c5 -29 -23 -93 -40 -93 -28 0 -30 53 -4 103 12 24 40
18 44 -10z"/>
<path d="M4633 2403 c-7 -2 -13 -10 -13 -16 0 -7 -8 -17 -19 -24 -26 -17 -52
-180 -30 -194 31 -20 43 -5 56 66 6 39 12 87 12 107 1 20 6 40 11 43 23 15 9
29 -17 18z"/>
<path d="M4861 2388 c-4 -13 -14 -58 -21 -101 -12 -70 -11 -80 3 -95 15 -15
18 -15 33 -1 16 16 46 183 37 206 -8 21 -43 15 -52 -9z"/>
<path d="M4735 2388 c-52 -9 -78 -30 -68 -54 3 -8 14 -14 24 -14 22 0 24 -22
9 -85 -7 -30 -6 -43 4 -53 23 -24 44 -3 56 56 17 87 20 92 46 102 17 7 24 17
24 35 0 28 -9 29 -95 13z"/>
<path d="M4465 2348 c-70 -25 -87 -80 -32 -106 35 -17 27 -30 -24 -38 -33 -6
-40 -10 -37 -28 3 -18 10 -21 55 -21 41 1 58 6 78 25 36 34 31 79 -10 99 -31
15 -30 16 28 35 24 8 18 40 -8 43 -11 1 -33 -3 -50 -9z"/>
<path d="M4947 2054 c-4 -4 -7 -26 -7 -48 0 -23 -5 -58 -11 -79 -18 -67 20
-86 83 -44 34 24 34 24 34 3 -1 -29 40 -35 49 -7 9 29 47 27 60 -1 13 -29 39
-30 43 -1 2 12 10 27 18 33 18 16 18 39 -1 46 -8 4 -15 17 -15 29 0 45 -18 75
-45 75 -20 0 -30 -11 -55 -59 -37 -74 -46 -80 -42 -27 3 30 -1 46 -15 58 -20
18 -84 33 -96 22z m63 -75 c0 -26 -17 -59 -31 -59 -10 0 -4 53 8 73 9 15 23 6
23 -14z"/>
<path d="M4794 2042 c-5 -4 -16 -20 -23 -37 l-14 -30 -6 30 c-4 17 -13 31 -24
33 -15 3 -17 -5 -17 -63 0 -71 12 -105 36 -105 8 0 19 11 24 25 5 14 19 44 30
67 21 44 25 73 12 82 -4 2 -12 2 -18 -2z"/>
<path d="M4874 2039 c-12 -20 -41 -143 -37 -156 3 -7 13 -13 23 -13 21 0 36
40 46 128 6 43 4 52 -9 52 -9 0 -19 -5 -23 -11z"/>
<path d="M155 3990 c-3 -5 -1 -10 4 -10 6 0 11 5 11 10 0 6 -2 10 -4 10 -3 0
-8 -4 -11 -10z"/>
<path d="M64 3849 c-3 -5 -4 -9 -2 -10 25 -6 39 -6 43 1 3 4 -4 10 -15 13 -11
3 -23 1 -26 -4z"/>
<path d="M550 3835 c0 -8 5 -15 10 -15 6 0 10 7 10 15 0 8 -4 15 -10 15 -5 0
-10 -7 -10 -15z"/>
<path d="M978 3680 c10 -27 50 -37 59 -15 7 20 3 23 -35 31 -30 6 -32 5 -24
-16z"/>
<path d="M1500 3500 c0 -6 5 -8 12 -4 6 4 17 -1 24 -10 8 -12 14 -14 19 -6 9
14 6 17 -28 25 -18 5 -27 3 -27 -5z"/>
<path d="M2563 3333 c-22 -8 -14 -20 12 -20 14 0 25 3 25 7 0 11 -22 18 -37
13z"/>
<path d="M2494 3309 c-3 -6 -16 -15 -28 -20 -19 -9 -19 -9 4 -4 14 2 33 5 43
5 9 0 17 4 17 9 0 14 -29 21 -36 10z"/>
</g>
</svg>
